<svg height="100%" width="100%" id="svg" viewBox="0 0 1440 700" xmlns="http://www.w3.org/2000/svg" class="transition duration-300 ease-in-out delay-150"><defs><linearGradient id="gradient"><stop offset="5%" stop-color="#5f0f4088"></stop><stop offset="95%" stop-color="#b5179e88"></stop></linearGradient></defs><path d="M 0,700 C 0,700 0,233 0,233 C 196.13333333333333,274.4666666666667 392.26666666666665,315.93333333333334 537,298 C 681.7333333333333,280.06666666666666 775.0666666666666,202.73333333333332 917,182 C 1058.9333333333334,161.26666666666668 1249.4666666666667,197.13333333333333 1440,233 C 1440,233 1440,700 1440,700 Z" stroke="none" stroke-width="0" fill="url(#gradient)" class="transition-all duration-300 ease-in-out delay-150"></path><defs><linearGradient id="gradient"><stop offset="5%" stop-color="#5f0f40ff"></stop><stop offset="95%" stop-color="#b5179eff"></stop></linearGradient></defs><path d="M 0,700 C 0,700 0,466 0,466 C 118.13333333333333,417.06666666666666 236.26666666666665,368.1333333333333 414,388 C 591.7333333333333,407.8666666666667 829.0666666666666,496.5333333333334 1010,521 C 1190.9333333333334,545.4666666666666 1315.4666666666667,505.7333333333333 1440,466 C 1440,466 1440,700 1440,700 Z" stroke="none" stroke-width="0" fill="url(#gradient)" class="transition-all duration-300 ease-in-out delay-150"></path></svg>